<svg version="1.1" id="Layer_1" xmlns="http://www.w3.org/2000/svg" xmlns:xlink="http://www.w3.org/1999/xlink" x="0px" y="0px"
	 width="100%" viewBox="0 0 1183 262" enable-background="new 0 0 1183 262" xml:space="preserve">
<path fill="#FEFEFE" opacity="1.000000" stroke="none" 
	d="
M803.000000,263.000000 
	C535.333313,263.000000 268.166656,263.000000 1.000000,263.000000 
	C1.000000,175.666672 1.000000,88.333336 1.000000,1.000000 
	C395.333344,1.000000 789.666687,1.000000 1184.000000,1.000000 
	C1184.000000,88.333336 1184.000000,175.666672 1184.000000,263.000000 
	C1057.166626,263.000000 930.333313,263.000000 803.000000,263.000000 
M776.500000,109.741562 
	C783.831360,109.742607 791.170410,109.945305 798.491211,109.667770 
	C802.764038,109.505783 804.439087,110.760147 804.290833,115.280670 
	C803.897766,127.267487 805.591492,125.193329 794.213867,125.354698 
	C776.230347,125.609764 758.230103,125.419983 740.268066,126.167007 
	C729.956726,126.595848 720.421387,134.793488 719.076965,145.011719 
	C717.699707,155.479843 717.595703,166.266006 718.311646,176.819534 
	C719.141846,189.057693 728.439392,198.404236 740.738037,199.095932 
	C757.179077,200.020660 773.695068,199.682312 790.178711,199.672516 
	C791.771973,199.671570 793.494385,198.346649 794.929138,197.318619 
	C797.665161,195.358185 800.237000,193.168457 802.727173,191.192780 
	C803.602051,192.005722 803.778076,192.091064 803.813721,192.216309 
	C803.949524,192.693314 804.198059,193.209122 804.123474,193.664307 
	C803.264648,198.902802 805.691040,200.228271 810.591003,199.928650 
	C817.064941,199.532776 823.588623,199.646606 830.076843,199.900818 
	C833.857300,200.048950 835.326172,199.137299 835.297791,194.951401 
	C835.106323,166.627228 834.757751,138.292023 835.359558,109.979515 
	C835.679016,94.951347 824.262329,81.572777 807.702576,81.766083 
	C786.045105,82.018890 764.381714,81.738792 742.722595,81.906898 
	C740.656006,81.922928 738.127075,82.992249 736.621704,84.423401 
	C729.258484,91.423279 722.157043,98.699158 715.000732,105.914909 
	C714.157532,106.765144 713.546143,107.845375 712.146240,109.741470 
	C733.997437,109.741470 754.748718,109.741470 776.500000,109.741562 
M445.500061,81.784248 
	C429.681946,81.888794 413.845795,81.564865 398.051270,82.229843 
	C384.780762,82.788544 374.981720,93.458488 374.391846,106.721825 
	C374.199585,111.044106 374.290161,115.380615 374.308929,119.710365 
	C374.390472,138.525558 374.038635,157.357803 374.747314,176.149796 
	C375.224365,188.800461 384.883728,198.844925 397.512299,199.154877 
	C427.800751,199.898270 458.113586,199.701981 488.415924,199.626404 
	C489.592804,199.623459 491.681213,197.012405 491.775635,195.517502 
	C492.163330,189.379623 491.736389,183.193878 492.017822,177.044449 
	C492.212189,172.796982 490.582947,171.735062 486.496918,171.765976 
	C462.682251,171.946213 438.865448,171.887665 415.049500,171.843796 
	C404.470520,171.824326 405.458374,173.215149 405.161682,161.828506 
	C405.038269,157.092438 406.782104,155.955124 411.281464,156.020935 
	C428.098969,156.266846 444.924042,156.239868 461.741577,155.994370 
	C464.478821,155.954391 467.839905,155.012299 469.799500,153.249619 
	C476.599091,147.133347 482.965363,140.527466 489.352448,133.967606 
	C490.545074,132.742706 491.781250,130.873810 491.789032,129.296127 
	C491.830963,120.818123 492.111176,112.266006 491.134064,103.876328 
	C489.749207,91.985428 480.384796,83.284767 468.459900,82.263191 
	C461.179718,81.639534 453.822632,81.913445 445.500061,81.784248 
M224.488922,199.826157 
	C227.488571,199.825241 230.509048,199.599945 233.482941,199.876236 
	C237.890930,200.285767 239.237122,198.512909 239.212524,194.162384 
	C239.056152,166.499710 239.212158,138.835419 239.098816,111.172325 
	C239.021317,92.255486 228.573227,81.955872 209.526489,81.810387 
	C197.028625,81.714920 184.527313,81.924484 172.031754,81.729233 
	C165.595840,81.628670 159.320206,81.341240 155.129578,87.559517 
	C154.841583,87.986862 153.993439,88.036705 153.377640,88.272911 
	C151.798416,81.787239 151.798416,81.786232 144.569000,81.785995 
	C138.236389,81.785797 131.901215,81.894691 125.572258,81.743080 
	C122.550949,81.670708 121.528557,82.714973 121.535606,85.795624 
	C121.619499,122.457878 121.616043,159.120483 121.528404,195.782715 
	C121.521065,198.850601 122.539230,199.922485 125.561050,199.865631 
	C132.724350,199.730911 139.901810,199.597580 147.054138,199.909180 
	C151.415436,200.099197 152.707504,198.773941 152.668961,194.286758 
	C152.444199,168.124985 152.672699,141.959351 152.459076,115.797386 
	C152.419037,110.892731 154.025131,109.553215 158.764145,109.643684 
	C172.924042,109.914017 187.096588,109.935905 201.255234,109.633942 
	C206.199646,109.528496 207.823914,110.773338 207.767960,116.000771 
	C207.487930,142.161499 207.713028,168.327240 207.563934,194.490112 
	C207.540329,198.631470 208.843033,200.221390 213.002960,199.881699 
	C216.479294,199.597809 219.997391,199.825180 224.488922,199.826157 
M272.558380,81.787148 
	C270.998199,82.223557 268.966156,82.178482 267.952179,83.172234 
	C259.521454,91.434677 251.276230,99.886482 243.002213,108.307838 
	C242.883362,108.428795 243.114151,108.893265 243.301682,109.736923 
	C252.962677,109.736923 262.741180,109.946205 272.503998,109.646080 
	C277.180695,109.502296 278.859222,110.732567 278.786041,115.745193 
	C278.503815,135.073212 278.515076,154.410461 278.767426,173.739670 
	C278.947174,187.505753 288.450867,198.376755 302.026855,199.162155 
	C317.805847,200.075027 333.661743,199.713516 349.484131,199.706726 
	C350.631989,199.706238 352.747711,198.121979 352.775543,197.223373 
	C353.031738,188.948853 352.926544,180.663147 352.926544,171.853653 
	C350.932404,171.853653 349.488373,171.853699 348.044373,171.853638 
	C337.044861,171.853195 326.043427,171.735748 315.046875,171.916031 
	C311.223541,171.978714 309.673767,170.772385 309.704987,166.796097 
	C309.841217,149.464630 309.839508,132.130875 309.705170,114.799377 
	C309.674500,110.841949 311.184998,109.610397 315.030823,109.674088 
	C326.360565,109.861710 337.695374,109.755753 349.028137,109.726952 
	C350.270172,109.723793 351.511597,109.475731 352.928497,109.322296 
	C352.928497,101.528091 352.718048,94.197968 353.013336,86.888268 
	C353.171448,82.974442 352.073792,81.598602 348.007812,81.698212 
	C337.514557,81.955284 327.010864,81.784447 316.511322,81.783676 
	C309.782410,81.783180 309.762939,81.782509 309.759766,75.299782 
	C309.753693,62.967056 309.791504,50.634274 309.757446,38.301662 
	C309.752899,36.660999 309.435272,35.021202 309.262634,33.381001 
	C308.812012,33.225174 308.361420,33.069347 307.910828,32.913521 
	C301.427155,39.564217 295.386688,46.736515 288.339813,52.724438 
	C280.712463,59.205650 276.915070,66.562737 278.668884,76.516853 
	C279.426788,80.818443 277.481689,82.358284 272.558380,81.787148 
M47.409817,99.499802 
	C47.409813,106.831978 47.409512,114.164162 47.409859,121.496338 
	C47.411007,145.825851 47.458923,170.155548 47.362640,194.484680 
	C47.348476,198.063324 47.921738,200.070435 52.240528,199.920242 
	C60.728928,199.625031 69.235855,199.758316 77.732948,199.873779 
	C80.732765,199.914536 81.812698,198.843887 81.808594,195.782043 
	C81.740051,144.623505 81.728859,93.464790 81.822746,42.306332 
	C81.829483,38.631474 80.355499,37.796722 77.052666,37.864613 
	C69.057304,38.028957 61.049740,38.111103 53.060154,37.840607 
	C48.743057,37.694443 47.265190,39.053112 47.319038,43.509548 
	C47.540504,61.837322 47.410561,80.169334 47.409817,99.499802 
M589.814270,161.499924 
	C589.815430,172.662186 589.927368,183.826172 589.755615,194.985764 
	C589.698242,198.713776 591.046936,199.982788 594.715332,199.871078 
	C601.539612,199.663269 608.392822,199.509445 615.199402,199.914337 
	C620.132263,200.207779 621.297913,198.441986 621.286316,193.705750 
	C621.136841,132.730087 621.189453,71.753929 621.174988,10.777899 
	C621.174561,9.027767 620.999023,7.277677 620.864624,4.772077 
	C619.132263,6.165123 617.926453,6.963128 616.926331,7.966191 
	C609.166138,15.748942 601.546265,23.674902 593.660156,31.326933 
	C590.783203,34.118511 589.740051,37.101421 589.750549,41.047035 
	C589.856079,80.864441 589.814514,120.682228 589.814270,161.499924 
M545.247192,8.727821 
	C537.519775,16.544090 529.679382,24.254189 522.153137,32.259575 
	C520.501892,34.015919 519.060791,36.819809 519.053040,39.146393 
	C518.879395,91.125809 518.949707,143.106003 518.860107,195.085846 
	C518.853516,198.914307 520.359680,199.969467 523.916382,199.870529 
	C530.741821,199.680649 537.588623,199.565842 544.402649,199.902557 
	C548.937500,200.126663 550.421265,198.723404 550.410767,194.051819 
	C550.272888,132.908997 550.322571,71.765739 550.304260,10.622602 
	C550.303772,8.920754 550.072693,7.218977 549.888062,4.676282 
	C547.971558,6.316230 546.857910,7.269234 545.247192,8.727821 
M660.395081,97.172569 
	C659.564148,98.893867 658.016846,100.611748 658.008606,102.336983 
	C657.859192,133.658691 657.913269,164.981308 657.857788,196.303619 
	C657.853210,198.891327 658.842041,199.886902 661.386780,199.846146 
	C666.716858,199.760803 672.049316,199.828430 677.380798,199.829147 
	C688.860962,199.830673 688.860840,199.829620 688.860962,188.308563 
	C688.861633,139.992065 688.819214,91.675446 688.942505,43.359253 
	C688.952698,39.379833 688.151733,37.634441 683.764282,37.839401 
	C676.615723,38.173344 669.437866,38.036873 662.277100,37.880257 
	C659.160645,37.812099 657.758240,38.644775 657.833252,42.073521 
	C658.026184,50.899532 657.982178,59.733849 657.848633,68.562057 
	C657.806335,71.357666 658.764099,72.494774 661.568420,72.436440 
	C666.564453,72.332512 671.564819,72.372742 676.562317,72.433311 
	C678.711731,72.459358 680.858643,72.686752 683.006714,72.822678 
	C683.381531,73.496361 683.756348,74.170052 684.131104,74.843735 
	C676.401062,82.112633 668.671082,89.381531 660.395081,97.172569 
M858.562927,192.077072 
	C861.745544,206.172073 864.928162,220.267090 868.163208,234.594147 
	C872.795288,234.594147 877.161682,234.181488 881.415771,234.696548 
	C886.982605,235.370529 889.113892,233.197952 890.289001,227.840073 
	C892.559814,217.486694 895.673767,207.318237 898.778809,195.810776 
	C899.537170,197.884842 899.864807,198.606766 900.067627,199.362244 
	C902.869995,209.800079 905.585327,220.262268 908.524414,230.661224 
	C908.936646,232.119858 910.362610,234.331818 911.425964,234.394806 
	C917.500671,234.754669 923.607727,234.569565 929.732971,234.569565 
	C934.640503,212.788132 939.403809,191.646790 944.206604,170.330078 
	C938.553345,170.330078 933.623352,170.330078 928.493347,170.330078 
	C925.485046,185.914856 922.522278,201.263397 919.559570,216.611954 
	C914.922302,203.969009 911.454163,191.372192 908.007629,178.769470 
	C905.604431,169.981766 905.611877,170.185806 896.737244,169.939102 
	C893.195435,169.840622 891.879333,171.024475 891.027527,174.325485 
	C887.871094,186.558685 884.440002,198.721680 881.033508,210.889069 
	C880.478088,212.873138 879.525940,214.746170 878.441833,217.460007 
	C875.294312,201.073898 872.326477,185.623123 869.406738,170.422760 
	C863.902588,170.422760 859.017578,170.422760 853.735413,170.422760 
	C855.329346,177.670441 856.825195,184.472153 858.562927,192.077072 
M1109.011719,212.826874 
	C1106.962280,206.847397 1102.197266,204.861084 1095.280396,204.770233 
	C1102.357910,198.671722 1108.532349,193.351257 1115.242554,187.569214 
	C1100.332886,185.778320 1099.579468,186.001007 1089.609985,194.734497 
	C1088.107178,196.050980 1086.626343,197.392624 1085.118774,198.703552 
	C1082.082031,201.344177 1079.034058,203.971695 1074.859497,207.583328 
	C1074.859497,189.627045 1074.859497,173.312851 1074.859497,156.998642 
	C1074.432739,156.774780 1074.005981,156.550903 1073.579102,156.327042 
	C1071.032837,159.116348 1068.728149,162.188995 1065.876465,164.620148 
	C1062.635986,167.382660 1061.697998,170.516907 1061.798462,174.656662 
	C1062.057251,185.306366 1061.885132,195.966537 1061.885132,206.622528 
	C1061.885132,215.749222 1061.885010,224.875900 1061.885010,234.301178 
	C1066.389526,234.301178 1070.464355,234.301178 1075.102539,234.301178 
	C1075.102539,228.165466 1075.102539,222.268784 1075.102539,216.160919 
	C1082.385498,216.160919 1089.104980,216.160919 1096.353394,216.160919 
	C1096.353394,222.326416 1096.353394,228.230270 1096.353394,234.291016 
	C1100.944092,234.291016 1105.001953,234.291016 1109.190796,234.291016 
	C1109.190796,227.193985 1109.190796,220.409729 1109.011719,212.826874 
M952.324097,226.602890 
	C954.113831,231.442184 957.450867,234.409103 962.720398,234.486404 
	C971.536011,234.615753 980.362305,234.733704 989.170105,234.438232 
	C995.510498,234.225510 999.422974,230.275253 999.627686,223.954559 
	C999.907715,215.310654 999.909424,206.645737 999.659363,198.000549 
	C999.467834,191.376999 995.093567,187.227585 988.441345,187.100433 
	C979.958008,186.938293 971.465393,186.915054 962.983704,187.119614 
	C956.395081,187.278534 952.169250,191.655411 952.085938,198.315460 
	C951.971558,207.464371 952.132629,216.616714 952.324097,226.602890 
M1137.500488,198.877853 
	C1148.287720,200.569580 1156.830688,197.369659 1162.567505,187.034470 
	C1153.396851,187.034470 1144.475098,187.025131 1135.553345,187.040848 
	C1133.224976,187.044952 1130.875244,186.942291 1128.572998,187.210953 
	C1123.406982,187.813751 1119.556030,191.938614 1119.146118,197.267456 
	C1118.955078,199.749557 1119.005615,202.259842 1119.095093,204.752029 
	C1119.339478,211.562958 1123.655518,215.759644 1130.551392,215.869659 
	C1135.162598,215.943253 1139.776001,215.883652 1144.547607,215.883652 
	C1144.547607,218.470795 1144.547607,220.483154 1144.547607,222.983734 
	C1135.902954,222.983734 1127.659546,222.983734 1119.398438,222.983734 
	C1119.398438,227.049118 1119.398438,230.612854 1119.398438,234.408676 
	C1129.349365,234.408676 1138.977051,234.652557 1148.584106,234.311676 
	C1153.840332,234.125168 1157.491211,229.892227 1158.010132,224.370193 
	C1158.258301,221.729309 1158.152466,219.049377 1158.114624,216.388458 
	C1157.999512,208.286041 1153.890259,204.179825 1145.738770,204.059296 
	C1141.324341,203.994003 1136.907959,204.047668 1132.732056,204.047668 
	C1131.369141,199.630234 1133.043701,198.457001 1137.500488,198.877853 
M1049.256226,191.359818 
	C1045.899170,189.917770 1042.638672,187.650177 1039.160400,187.242676 
	C1034.814819,186.733566 1030.285889,188.077515 1025.843384,188.023163 
	C1021.573425,187.970917 1017.312744,187.155090 1012.944702,186.663147 
	C1012.944702,203.263214 1012.944702,218.783707 1012.944702,234.201233 
	C1017.418274,234.201233 1021.482361,234.201233 1026.099121,234.201233 
	C1026.099121,222.241913 1026.099121,210.694870 1026.099121,199.163177 
	C1030.423584,199.163177 1034.179932,199.163177 1038.129517,199.163177 
	C1038.334351,202.484299 1038.522827,205.540329 1038.713867,208.637970 
	C1043.150391,208.637970 1047.083862,208.637970 1052.427979,208.637970 
	C1051.480957,202.806488 1050.600342,197.383606 1049.256226,191.359818 
z"/>
<path fill="#0404FF" opacity="1.000000" stroke="none" 
	d="
M776.000000,109.741516 
	C754.748718,109.741470 733.997437,109.741470 712.146240,109.741470 
	C713.546143,107.845375 714.157532,106.765144 715.000732,105.914909 
	C722.157043,98.699158 729.258484,91.423279 736.621704,84.423401 
	C738.127075,82.992249 740.656006,81.922928 742.722595,81.906898 
	C764.381714,81.738792 786.045105,82.018890 807.702576,81.766083 
	C824.262329,81.572777 835.679016,94.951347 835.359558,109.979515 
	C834.757751,138.292023 835.106323,166.627228 835.297791,194.951401 
	C835.326172,199.137299 833.857300,200.048950 830.076843,199.900818 
	C823.588623,199.646606 817.064941,199.532776 810.591003,199.928650 
	C805.691040,200.228271 803.264648,198.902802 804.123474,193.664307 
	C804.198059,193.209122 803.949524,192.693314 803.813721,192.216309 
	C803.778076,192.091064 803.602051,192.005722 802.727173,191.192780 
	C800.237000,193.168457 797.665161,195.358185 794.929138,197.318619 
	C793.494385,198.346649 791.771973,199.671570 790.178711,199.672516 
	C773.695068,199.682312 757.179077,200.020660 740.738037,199.095932 
	C728.439392,198.404236 719.141846,189.057693 718.311646,176.819534 
	C717.595703,166.266006 717.699707,155.479843 719.076965,145.011719 
	C720.421387,134.793488 729.956726,126.595848 740.268066,126.167007 
	C758.230103,125.419983 776.230347,125.609764 794.213867,125.354698 
	C805.591492,125.193329 803.897766,127.267487 804.290833,115.280670 
	C804.439087,110.760147 802.764038,109.505783 798.491211,109.667770 
	C791.170410,109.945305 783.831360,109.742607 776.000000,109.741516 
M789.539062,152.920563 
	C780.572632,153.074982 771.606750,153.314499 762.639709,153.364029 
	C748.956665,153.439606 748.956604,153.383835 749.123108,167.010315 
	C749.127197,167.343094 749.131775,167.677902 749.102356,168.008743 
	C748.855164,170.784088 750.152161,171.917191 752.896423,171.909698 
	C768.712585,171.866501 784.529785,171.953705 800.343750,171.761902 
	C801.630249,171.746277 803.972961,170.003372 804.002869,169.008423 
	C804.284546,159.614075 804.170410,150.207886 804.170410,140.805099 
	C803.771973,140.611877 803.373596,140.418640 802.975159,140.225418 
	C798.724976,144.302689 794.474792,148.379959 789.539062,152.920563 
z"/>
<path fill="#050505" opacity="1.000000" stroke="none" 
	d="
M446.000061,81.784241 
	C453.822632,81.913445 461.179718,81.639534 468.459900,82.263191 
	C480.384796,83.284767 489.749207,91.985428 491.134064,103.876328 
	C492.111176,112.266006 491.830963,120.818123 491.789032,129.296127 
	C491.781250,130.873810 490.545074,132.742706 489.352448,133.967606 
	C482.965363,140.527466 476.599091,147.133347 469.799500,153.249619 
	C467.839905,155.012299 464.478821,155.954391 461.741577,155.994370 
	C444.924042,156.239868 428.098969,156.266846 411.281464,156.020935 
	C406.782104,155.955124 405.038269,157.092438 405.161682,161.828506 
	C405.458374,173.215149 404.470520,171.824326 415.049500,171.843796 
	C438.865448,171.887665 462.682251,171.946213 486.496918,171.765976 
	C490.582947,171.735062 492.212189,172.796982 492.017822,177.044449 
	C491.736389,183.193878 492.163330,189.379623 491.775635,195.517502 
	C491.681213,197.012405 489.592804,199.623459 488.415924,199.626404 
	C458.113586,199.701981 427.800751,199.898270 397.512299,199.154877 
	C384.883728,198.844925 375.224365,188.800461 374.747314,176.149796 
	C374.038635,157.357803 374.390472,138.525558 374.308929,119.710365 
	C374.290161,115.380615 374.199585,111.044106 374.391846,106.721825 
	C374.981720,93.458488 384.780762,82.788544 398.051270,82.229843 
	C413.845795,81.564865 429.681946,81.888794 446.000061,81.784241 
M409.732483,138.325684 
	C411.618439,136.447525 413.705688,134.728745 415.346344,132.656403 
	C418.306183,128.917755 421.911926,127.688934 426.663177,127.980644 
	C433.295502,128.387848 439.971527,128.083389 446.628845,128.083405 
	C460.948975,128.083435 460.948853,128.083405 460.361481,113.785324 
	C460.354645,113.619217 460.434387,113.382347 460.351532,113.296730 
	C459.189148,112.095474 458.019989,109.899628 456.824829,109.882568 
	C440.850616,109.654594 424.871429,109.675720 408.895752,109.847595 
	C407.707123,109.860390 405.535400,111.472473 405.510956,112.386261 
	C405.259430,121.795380 405.356628,131.213821 405.356628,141.590240 
	C407.213837,140.270462 408.217072,139.557526 409.732483,138.325684 
z"/>
<path fill="#040404" opacity="1.000000" stroke="none" 
	d="
M223.992950,199.826141 
	C219.997391,199.825180 216.479294,199.597809 213.002960,199.881699 
	C208.843033,200.221390 207.540329,198.631470 207.563934,194.490112 
	C207.713028,168.327240 207.487930,142.161499 207.767960,116.000771 
	C207.823914,110.773338 206.199646,109.528496 201.255234,109.633942 
	C187.096588,109.935905 172.924042,109.914017 158.764145,109.643684 
	C154.025131,109.553215 152.419037,110.892731 152.459076,115.797386 
	C152.672699,141.959351 152.444199,168.124985 152.668961,194.286758 
	C152.707504,198.773941 151.415436,200.099197 147.054138,199.909180 
	C139.901810,199.597580 132.724350,199.730911 125.561050,199.865631 
	C122.539230,199.922485 121.521065,198.850601 121.528404,195.782715 
	C121.616043,159.120483 121.619499,122.457878 121.535606,85.795624 
	C121.528557,82.714973 122.550949,81.670708 125.572258,81.743080 
	C131.901215,81.894691 138.236389,81.785797 144.569000,81.785995 
	C151.798416,81.786232 151.798416,81.787239 153.377640,88.272911 
	C153.993439,88.036705 154.841583,87.986862 155.129578,87.559517 
	C159.320206,81.341240 165.595840,81.628670 172.031754,81.729233 
	C184.527313,81.924484 197.028625,81.714920 209.526489,81.810387 
	C228.573227,81.955872 239.021317,92.255486 239.098816,111.172325 
	C239.212158,138.835419 239.056152,166.499710 239.212524,194.162384 
	C239.237122,198.512909 237.890930,200.285767 233.482941,199.876236 
	C230.509048,199.599945 227.488571,199.825241 223.992950,199.826141 
z"/>
<path fill="#050505" opacity="1.000000" stroke="none" 
	d="
M272.977661,81.786362 
	C277.481689,82.358284 279.426788,80.818443 278.668884,76.516853 
	C276.915070,66.562737 280.712463,59.205650 288.339813,52.724438 
	C295.386688,46.736515 301.427155,39.564217 307.910828,32.913521 
	C308.361420,33.069347 308.812012,33.225174 309.262634,33.381001 
	C309.435272,35.021202 309.752899,36.660999 309.757446,38.301662 
	C309.791504,50.634274 309.753693,62.967056 309.759766,75.299782 
	C309.762939,81.782509 309.782410,81.783180 316.511322,81.783676 
	C327.010864,81.784447 337.514557,81.955284 348.007812,81.698212 
	C352.073792,81.598602 353.171448,82.974442 353.013336,86.888268 
	C352.718048,94.197968 352.928497,101.528091 352.928497,109.322296 
	C351.511597,109.475731 350.270172,109.723793 349.028137,109.726952 
	C337.695374,109.755753 326.360565,109.861710 315.030823,109.674088 
	C311.184998,109.610397 309.674500,110.841949 309.705170,114.799377 
	C309.839508,132.130875 309.841217,149.464630 309.704987,166.796097 
	C309.673767,170.772385 311.223541,171.978714 315.046875,171.916031 
	C326.043427,171.735748 337.044861,171.853195 348.044373,171.853638 
	C349.488373,171.853699 350.932404,171.853653 352.926544,171.853653 
	C352.926544,180.663147 353.031738,188.948853 352.775543,197.223373 
	C352.747711,198.121979 350.631989,199.706238 349.484131,199.706726 
	C333.661743,199.713516 317.805847,200.075027 302.026855,199.162155 
	C288.450867,198.376755 278.947174,187.505753 278.767426,173.739670 
	C278.515076,154.410461 278.503815,135.073212 278.786041,115.745193 
	C278.859222,110.732567 277.180695,109.502296 272.503998,109.646080 
	C262.741180,109.946205 252.962677,109.736923 243.301682,109.736923 
	C243.114151,108.893265 242.883362,108.428795 243.002213,108.307838 
	C251.276230,99.886482 259.521454,91.434677 267.952179,83.172234 
	C268.966156,82.178482 270.998199,82.223557 272.977661,81.786362 
z"/>
<path fill="#070707" opacity="1.000000" stroke="none" 
	d="
M47.409840,98.999802 
	C47.410561,80.169334 47.540504,61.837322 47.319038,43.509548 
	C47.265190,39.053112 48.743057,37.694443 53.060154,37.840607 
	C61.049740,38.111103 69.057304,38.028957 77.052666,37.864613 
	C80.355499,37.796722 81.829483,38.631474 81.822746,42.306332 
	C81.728859,93.464790 81.740051,144.623505 81.808594,195.782043 
	C81.812698,198.843887 80.732765,199.914536 77.732948,199.873779 
	C69.235855,199.758316 60.728928,199.625031 52.240528,199.920242 
	C47.921738,200.070435 47.348476,198.063324 47.362640,194.484680 
	C47.458923,170.155548 47.411007,145.825851 47.409859,121.496338 
	C47.409512,114.164162 47.409813,106.831978 47.409840,98.999802 
z"/>
<path fill="#020202" opacity="1.000000" stroke="none" 
	d="
M589.814270,160.999908 
	C589.814514,120.682228 589.856079,80.864441 589.750549,41.047035 
	C589.740051,37.101421 590.783203,34.118511 593.660156,31.326933 
	C601.546265,23.674902 609.166138,15.748942 616.926331,7.966191 
	C617.926453,6.963128 619.132263,6.165123 620.864624,4.772077 
	C620.999023,7.277677 621.174561,9.027767 621.174988,10.777899 
	C621.189453,71.753929 621.136841,132.730087 621.286316,193.705750 
	C621.297913,198.441986 620.132263,200.207779 615.199402,199.914337 
	C608.392822,199.509445 601.539612,199.663269 594.715332,199.871078 
	C591.046936,199.982788 589.698242,198.713776 589.755615,194.985764 
	C589.927368,183.826172 589.815430,172.662186 589.814270,160.999908 
z"/>
<path fill="#020202" opacity="1.000000" stroke="none" 
	d="
M545.495728,8.475029 
	C546.857910,7.269234 547.971558,6.316230 549.888062,4.676282 
	C550.072693,7.218977 550.303772,8.920754 550.304260,10.622602 
	C550.322571,71.765739 550.272888,132.908997 550.410767,194.051819 
	C550.421265,198.723404 548.937500,200.126663 544.402649,199.902557 
	C537.588623,199.565842 530.741821,199.680649 523.916382,199.870529 
	C520.359680,199.969467 518.853516,198.914307 518.860107,195.085846 
	C518.949707,143.106003 518.879395,91.125809 519.053040,39.146393 
	C519.060791,36.819809 520.501892,34.015919 522.153137,32.259575 
	C529.679382,24.254189 537.519775,16.544090 545.495728,8.475029 
z"/>
<path fill="#0404FF" opacity="1.000000" stroke="none" 
	d="
M660.668091,96.911499 
	C668.671082,89.381531 676.401062,82.112633 684.131104,74.843735 
	C683.756348,74.170052 683.381531,73.496361 683.006714,72.822678 
	C680.858643,72.686752 678.711731,72.459358 676.562317,72.433311 
	C671.564819,72.372742 666.564453,72.332512 661.568420,72.436440 
	C658.764099,72.494774 657.806335,71.357666 657.848633,68.562057 
	C657.982178,59.733849 658.026184,50.899532 657.833252,42.073521 
	C657.758240,38.644775 659.160645,37.812099 662.277100,37.880257 
	C669.437866,38.036873 676.615723,38.173344 683.764282,37.839401 
	C688.151733,37.634441 688.952698,39.379833 688.942505,43.359253 
	C688.819214,91.675446 688.861633,139.992065 688.860962,188.308563 
	C688.860840,199.829620 688.860962,199.830673 677.380798,199.829147 
	C672.049316,199.828430 666.716858,199.760803 661.386780,199.846146 
	C658.842041,199.886902 657.853210,198.891327 657.857788,196.303619 
	C657.913269,164.981308 657.859192,133.658691 658.008606,102.336983 
	C658.016846,100.611748 659.564148,98.893867 660.668091,96.911499 
z"/>
<path fill="#080808" opacity="1.000000" stroke="none" 
	d="
M858.441956,191.675476 
	C856.825195,184.472153 855.329346,177.670441 853.735413,170.422760 
	C859.017578,170.422760 863.902588,170.422760 869.406738,170.422760 
	C872.326477,185.623123 875.294312,201.073898 878.441833,217.460007 
	C879.525940,214.746170 880.478088,212.873138 881.033508,210.889069 
	C884.440002,198.721680 887.871094,186.558685 891.027527,174.325485 
	C891.879333,171.024475 893.195435,169.840622 896.737244,169.939102 
	C905.611877,170.185806 905.604431,169.981766 908.007629,178.769470 
	C911.454163,191.372192 914.922302,203.969009 919.559570,216.611954 
	C922.522278,201.263397 925.485046,185.914856 928.493347,170.330078 
	C933.623352,170.330078 938.553345,170.330078 944.206604,170.330078 
	C939.403809,191.646790 934.640503,212.788132 929.732971,234.569565 
	C923.607727,234.569565 917.500671,234.754669 911.425964,234.394806 
	C910.362610,234.331818 908.936646,232.119858 908.524414,230.661224 
	C905.585327,220.262268 902.869995,209.800079 900.067627,199.362244 
	C899.864807,198.606766 899.537170,197.884842 898.778809,195.810776 
	C895.673767,207.318237 892.559814,217.486694 890.289001,227.840073 
	C889.113892,233.197952 886.982605,235.370529 881.415771,234.696548 
	C877.161682,234.181488 872.795288,234.594147 868.163208,234.594147 
	C864.928162,220.267090 861.745544,206.172073 858.441956,191.675476 
z"/>
<path fill="#0B0B0B" opacity="1.000000" stroke="none" 
	d="
M1109.101318,213.226166 
	C1109.190796,220.409729 1109.190796,227.193985 1109.190796,234.291016 
	C1105.001953,234.291016 1100.944092,234.291016 1096.353394,234.291016 
	C1096.353394,228.230270 1096.353394,222.326416 1096.353394,216.160919 
	C1089.104980,216.160919 1082.385498,216.160919 1075.102539,216.160919 
	C1075.102539,222.268784 1075.102539,228.165466 1075.102539,234.301178 
	C1070.464355,234.301178 1066.389526,234.301178 1061.885010,234.301178 
	C1061.885010,224.875900 1061.885132,215.749222 1061.885132,206.622528 
	C1061.885132,195.966537 1062.057251,185.306366 1061.798462,174.656662 
	C1061.697998,170.516907 1062.635986,167.382660 1065.876465,164.620148 
	C1068.728149,162.188995 1071.032837,159.116348 1073.579102,156.327042 
	C1074.005981,156.550903 1074.432739,156.774780 1074.859497,156.998642 
	C1074.859497,173.312851 1074.859497,189.627045 1074.859497,207.583328 
	C1079.034058,203.971695 1082.082031,201.344177 1085.118774,198.703552 
	C1086.626343,197.392624 1088.107178,196.050980 1089.609985,194.734497 
	C1099.579468,186.001007 1100.332886,185.778320 1115.242554,187.569214 
	C1108.532349,193.351257 1102.357910,198.671722 1095.280396,204.770233 
	C1102.197266,204.861084 1106.962280,206.847397 1109.101318,213.226166 
z"/>
<path fill="#0A0A0A" opacity="1.000000" stroke="none" 
	d="
M952.249878,226.185242 
	C952.132629,216.616714 951.971558,207.464371 952.085938,198.315460 
	C952.169250,191.655411 956.395081,187.278534 962.983704,187.119614 
	C971.465393,186.915054 979.958008,186.938293 988.441345,187.100433 
	C995.093567,187.227585 999.467834,191.376999 999.659363,198.000549 
	C999.909424,206.645737 999.907715,215.310654 999.627686,223.954559 
	C999.422974,230.275253 995.510498,234.225510 989.170105,234.438232 
	C980.362305,234.733704 971.536011,234.615753 962.720398,234.486404 
	C957.450867,234.409103 954.113831,231.442184 952.249878,226.185242 
M965.150269,221.084732 
	C965.798279,221.676819 966.435974,222.769516 967.095947,222.783218 
	C973.379395,222.913589 979.666626,222.861008 986.252136,222.861008 
	C986.252136,214.686737 986.252136,206.957886 986.252136,199.077103 
	C979.187561,199.077103 972.434143,199.077103 965.800476,199.077103 
	C965.525513,199.611328 965.251648,199.896774 965.249207,200.184525 
	C965.193298,206.839752 965.166687,213.495209 965.150269,221.084732 
z"/>
<path fill="#0C0C0C" opacity="1.000000" stroke="none" 
	d="
M1136.998291,198.877960 
	C1133.043701,198.457001 1131.369141,199.630234 1132.732056,204.047668 
	C1136.907959,204.047668 1141.324341,203.994003 1145.738770,204.059296 
	C1153.890259,204.179825 1157.999512,208.286041 1158.114624,216.388458 
	C1158.152466,219.049377 1158.258301,221.729309 1158.010132,224.370193 
	C1157.491211,229.892227 1153.840332,234.125168 1148.584106,234.311676 
	C1138.977051,234.652557 1129.349365,234.408676 1119.398438,234.408676 
	C1119.398438,230.612854 1119.398438,227.049118 1119.398438,222.983734 
	C1127.659546,222.983734 1135.902954,222.983734 1144.547607,222.983734 
	C1144.547607,220.483154 1144.547607,218.470795 1144.547607,215.883652 
	C1139.776001,215.883652 1135.162598,215.943253 1130.551392,215.869659 
	C1123.655518,215.759644 1119.339478,211.562958 1119.095093,204.752029 
	C1119.005615,202.259842 1118.955078,199.749557 1119.146118,197.267456 
	C1119.556030,191.938614 1123.406982,187.813751 1128.572998,187.210953 
	C1130.875244,186.942291 1133.224976,187.044952 1135.553345,187.040848 
	C1144.475098,187.025131 1153.396851,187.034470 1162.567505,187.034470 
	C1156.830688,197.369659 1148.287720,200.569580 1136.998291,198.877960 
z"/>
<path fill="#0D0D0D" opacity="1.000000" stroke="none" 
	d="
M1049.488037,191.660278 
	C1050.600342,197.383606 1051.480957,202.806488 1052.427979,208.637970 
	C1047.083862,208.637970 1043.150391,208.637970 1038.713867,208.637970 
	C1038.522827,205.540329 1038.334351,202.484299 1038.129517,199.163177 
	C1034.179932,199.163177 1030.423584,199.163177 1026.099121,199.163177 
	C1026.099121,210.694870 1026.099121,222.241913 1026.099121,234.201233 
	C1021.482361,234.201233 1017.418274,234.201233 1012.944702,234.201233 
	C1012.944702,218.783707 1012.944702,203.263214 1012.944702,186.663147 
	C1017.312744,187.155090 1021.573425,187.970917 1025.843384,188.023163 
	C1030.285889,188.077515 1034.814819,186.733566 1039.160400,187.242676 
	C1042.638672,187.650177 1045.899170,189.917770 1049.488037,191.660278 
z"/>
<path fill="#F4F4FF" opacity="1.000000" stroke="none" 
	d="
M789.881836,152.688904 
	C794.474792,148.379959 798.724976,144.302689 802.975159,140.225418 
	C803.373596,140.418640 803.771973,140.611877 804.170410,140.805099 
	C804.170410,150.207886 804.284546,159.614075 804.002869,169.008423 
	C803.972961,170.003372 801.630249,171.746277 800.343750,171.761902 
	C784.529785,171.953705 768.712585,171.866501 752.896423,171.909698 
	C750.152161,171.917191 748.855164,170.784088 749.102356,168.008743 
	C749.131775,167.677902 749.127197,167.343094 749.123108,167.010315 
	C748.956604,153.383835 748.956665,153.439606 762.639709,153.364029 
	C771.606750,153.314499 780.572632,153.074982 789.881836,152.688904 
z"/>
<path fill="#F7F7F7" opacity="1.000000" stroke="none" 
	d="
M409.476379,138.585144 
	C408.217072,139.557526 407.213837,140.270462 405.356628,141.590240 
	C405.356628,131.213821 405.259430,121.795380 405.510956,112.386261 
	C405.535400,111.472473 407.707123,109.860390 408.895752,109.847595 
	C424.871429,109.675720 440.850616,109.654594 456.824829,109.882568 
	C458.019989,109.899628 459.189148,112.095474 460.351532,113.296730 
	C460.434387,113.382347 460.354645,113.619217 460.361481,113.785324 
	C460.948853,128.083405 460.948975,128.083435 446.628845,128.083405 
	C439.971527,128.083389 433.295502,128.387848 426.663177,127.980644 
	C421.911926,127.688934 418.306183,128.917755 415.346344,132.656403 
	C413.705688,134.728745 411.618439,136.447525 409.476379,138.585144 
z"/>
<path fill="#F2F2F2" opacity="1.000000" stroke="none" 
	d="
M965.142517,220.617676 
	C965.166687,213.495209 965.193298,206.839752 965.249207,200.184525 
	C965.251648,199.896774 965.525513,199.611328 965.800476,199.077103 
	C972.434143,199.077103 979.187561,199.077103 986.252136,199.077103 
	C986.252136,206.957886 986.252136,214.686737 986.252136,222.861008 
	C979.666626,222.861008 973.379395,222.913589 967.095947,222.783218 
	C966.435974,222.769516 965.798279,221.676819 965.142517,220.617676 
z"/>
</svg>