<?xml version="1.0" standalone="no"?>
<!DOCTYPE svg PUBLIC "-//W3C//DTD SVG 20010904//EN"
 "http://www.w3.org/TR/2001/REC-SVG-20010904/DTD/svg10.dtd">
<svg version="1.0" xmlns="http://www.w3.org/2000/svg"
 width="1062.000000pt" height="235.000000pt" viewBox="0 0 1062.000000 235.000000"
 preserveAspectRatio="xMidYMid meet">

<g transform="translate(0.000000,235.000000) scale(0.100000,-0.100000)"
fill="#000000" stroke="none">
<path d="M4782 2177 l-132 -134 0 -736 0 -737 140 0 140 0 0 870 c0 479 -4
870 -8 870 -4 0 -67 -60 -140 -133z"/>
<path d="M5422 2177 l-132 -132 0 -738 0 -738 138 3 137 3 3 868 c1 477 -1
867 -6 867 -4 0 -67 -60 -140 -133z"/>
<path d="M2622 1927 l-132 -134 0 -81 0 -82 -37 0 c-33 0 -47 -11 -159 -122
-68 -66 -121 -124 -119 -128 3 -4 60 -6 127 -3 68 2 137 1 155 -2 l32 -6 3
-312 c3 -345 5 -352 72 -419 63 -63 85 -68 354 -68 l243 0 -3 122 -3 123 -190
5 -190 5 -3 268 -2 267 27 11 c16 6 97 9 193 8 l165 -2 3 122 c1 66 1 122 0
123 -2 1 -88 4 -193 7 l-190 6 -3 213 c-1 116 -6 212 -10 212 -4 0 -67 -60
-140 -133z"/>
<path d="M427 2013 c-4 -3 -7 -330 -7 -725 l0 -718 150 0 150 0 0 725 0 725
-143 0 c-79 0 -147 -3 -150 -7z"/>
<path d="M5907 2013 c-4 -3 -7 -73 -7 -155 l0 -148 110 0 c82 0 110 -3 110
-13 0 -7 -49 -62 -110 -122 l-110 -110 0 -447 0 -448 135 0 135 0 0 725 0 725
-128 0 c-71 0 -132 -3 -135 -7z"/>
<path d="M1092 1622 c-10 -7 -12 -119 -10 -528 l3 -519 138 -3 137 -3 0 400 0
399 23 4 c32 6 457 -1 468 -7 5 -4 9 -170 9 -401 l0 -395 138 3 137 3 3 405
c1 260 -2 424 -8 457 -15 69 -55 122 -121 158 l-54 30 -251 3 -251 4 -35 -31
c-43 -37 -58 -39 -58 -7 0 13 -7 27 -16 30 -23 9 -237 7 -252 -2z"/>
<path d="M3555 1621 c-67 -11 -106 -32 -147 -81 -55 -64 -58 -85 -58 -437 0
-370 4 -394 73 -465 66 -68 72 -69 557 -66 l425 3 3 100 c2 55 0 110 -3 122
l-5 23 -383 2 -382 3 0 65 0 65 276 3 275 2 114 115 113 115 -5 127 c-7 173
-35 230 -136 280 l-57 28 -305 2 c-168 1 -328 -2 -355 -6z m565 -331 l0 -80
-178 0 -178 0 -54 -55 c-30 -30 -60 -55 -67 -55 -10 0 -13 32 -13 134 0 132 0
135 23 138 12 2 122 2 245 0 l222 -3 0 -79z"/>
<path d="M6505 1500 c-66 -66 -115 -120 -110 -120 6 -1 186 0 400 0 215 0 396
-4 403 -8 9 -6 12 -28 10 -73 l-3 -64 -305 -5 c-340 -6 -336 -5 -402 -78 -53
-59 -63 -98 -63 -252 0 -106 4 -145 18 -182 22 -57 91 -123 143 -137 23 -6
138 -11 273 -11 l234 0 43 35 c23 19 47 35 53 35 5 0 11 -15 13 -33 l3 -32
138 -3 137 -3 0 433 0 433 -24 50 c-25 54 -71 100 -123 122 -25 10 -110 13
-375 13 l-343 0 -120 -120z m705 -540 l0 -140 -245 0 -245 0 0 80 0 80 176 0
176 0 61 60 c34 33 65 60 70 60 4 0 7 -63 7 -140z"/>
<path d="M9571 896 l-51 -55 0 -290 0 -291 60 0 60 0 0 80 0 80 95 0 95 0 0
-80 0 -80 60 0 60 0 0 90 c0 125 -21 159 -105 172 -15 2 0 20 68 77 48 41 87
76 87 78 0 2 -33 3 -74 3 l-75 0 -97 -85 c-53 -47 -101 -85 -105 -85 -5 0 -9
99 -9 220 0 121 -4 220 -9 220 -4 0 -31 -24 -60 -54z"/>
<path d="M7660 823 c0 -5 27 -133 61 -285 l62 -278 92 0 92 0 44 165 c24 91
47 165 50 165 4 0 21 -55 39 -122 17 -68 37 -142 43 -165 l11 -43 93 0 c51 0
93 2 93 4 0 4 89 398 114 504 l14 62 -72 0 -71 0 -39 -207 c-36 -197 -42 -222
-49 -212 -2 2 -28 96 -58 209 l-56 205 -61 3 -60 3 -15 -53 c-9 -29 -35 -124
-59 -210 -38 -142 -58 -190 -58 -140 0 9 -17 104 -37 210 l-37 192 -68 0 c-37
0 -68 -3 -68 -7z"/>
<path d="M8569 651 l-29 -29 0 -150 c0 -147 1 -151 26 -181 l26 -31 159 0
c155 0 161 1 184 24 30 30 38 85 33 227 -3 111 -3 111 -36 140 l-32 29 -151 0
-151 0 -29 -29z m276 -181 l0 -105 -92 -3 -93 -3 0 111 0 111 93 -3 92 -3 0
-105z"/>
<path d="M9080 470 l0 -210 50 0 c28 0 53 -1 58 -2 4 -2 9 69 12 157 l5 160
53 3 52 3 0 -45 0 -46 60 0 60 0 0 66 c0 59 -3 68 -29 95 -27 27 -35 29 -103
29 -44 0 -79 -5 -86 -12 -9 -9 -12 -9 -12 0 0 8 -20 12 -60 12 l-60 0 0 -210z"/>
<path d="M10069 651 c-26 -27 -29 -36 -29 -96 0 -36 5 -75 10 -86 18 -33 64
-49 145 -49 l75 0 0 -30 0 -30 -115 0 -115 0 0 -50 0 -50 141 0 c77 0 149 5
160 10 35 19 51 67 47 138 -4 58 -8 68 -36 93 -30 27 -38 29 -112 29 -80 0
-95 6 -84 34 5 13 23 16 93 16 l87 0 49 50 49 50 -168 0 -168 0 -29 -29z"/>
</g>
</svg>
